<?xml version="1.0" encoding="utf-8" ?><!-- created by svgstack.com | Attribution is required. --><svg xmlns="http://www.w3.org/2000/svg" xmlns:xlink="http://www.w3.org/1999/xlink" width="1024" height="1024"><path fill="#6696AA" transform="scale(2 2)" d="M345.715 57.7508L383.969 57.7508C383.317 63.6869 384.341 69.9616 384.799 75.9133C390.666 77.847 396.338 80.8193 401.688 83.8774C407.282 80.8533 412.401 76.9577 417.887 73.7386L432.385 88.2915C435.256 91.1619 438.233 93.9816 440.916 97.0286C438.041 101.711 433.706 107.001 430.252 111.282C433.439 117.007 435.981 123.595 438.006 129.816C443.919 130.611 449.82 131.752 455.757 132.325C455.162 141.327 455.277 156.374 455.757 165.447L436.977 168.408C434.65 174.038 432.277 179.702 430.252 185.448C433.371 190.763 437.317 195.765 440.916 200.771C436.056 205.893 420.249 219.761 417.887 225.584C412.62 221.699 406.539 218.345 401.688 213.985C395.801 216.778 389.946 219.533 383.969 222.132C383.613 228.35 384.02 234.741 383.969 240.986L379.768 240.986C368.956 242.186 357.869 241.807 347.004 241.796C346.281 237.358 346.085 229.522 344.116 225.584C356.74 210.365 358.421 213.146 344.429 199.583C337.689 193.049 303.268 156.791 297.486 155.021C288.268 152.198 280.199 172.526 274.31 165.463C273.359 159.863 272.92 137.58 273.613 131.329C279.852 130.67 286.063 129.626 292.308 128.941C294.51 122.873 297.092 117.124 299.822 111.282C295.869 106.596 292.493 101.135 287.918 97.0286C293.201 89.6726 305.599 79.1904 312.353 72.1992C317.158 76.3453 322.835 79.3212 327.325 83.8774C332.639 80.8757 339.034 78.4736 344.929 76.8684C344.919 70.4984 345.744 64.1523 345.715 57.7508ZM363.976 105.508C352.025 105.715 341.292 110.143 332.976 118.802C306.057 146.832 326.834 193.958 365.279 191.746C388.288 191.613 408.379 171.785 408.212 148.636C408.044 125.309 387.825 104.104 363.976 105.508Z"/><path fill="#51B9E8" transform="scale(2 2)" d="M181.503 147.772C199.009 147.52 216.553 147.767 234.063 147.772L234.063 179.418C248.041 181.477 261.037 188.011 273.046 195.131L286.185 181.978C288.911 179.264 291.666 176.251 294.801 174.029C297.886 179.074 316.549 196.021 321.578 200.904C325.19 204.411 330.175 208.389 332.998 212.491C327.46 218.946 318.545 227.328 312.353 233.097C314.33 237.873 317.638 242.074 319.868 246.767C323.693 254.813 326.15 263.161 329.106 271.53L359.553 271.53L359.553 330.263L329.106 330.263C326.098 342.468 320.451 357.893 312.353 367.564C317.45 373.369 328.166 384.731 334.145 389.217C320.717 402.062 308.344 415.988 294.801 428.751C287.44 421.814 280.135 414.628 273.046 407.424C259.192 415.134 250.168 419.654 234.063 423.624L234.063 452.313C234.137 452.905 234.209 453.281 234.003 453.857C232.553 454.578 185.626 454.161 179.735 454.161C179.557 450.461 179.703 446.69 179.718 442.983L179.735 423.624C165.674 418.425 156.596 415.387 143.049 407.424C136.294 413.683 128.399 423.489 121.424 428.751C110.189 415.787 94.8205 401.341 82.4124 389.217C89.719 382.24 96.8444 374.873 103.816 367.564C95.7381 356.514 91.686 343.137 87.6494 330.263C84.3404 330.466 80.9076 330.285 77.5867 330.282L57.798 330.263C57.6364 311.533 58.2586 292.733 57.798 274.016L87.6494 274.016C87.7567 263.347 97.239 245.21 102.729 235.941C96.8948 229.502 88.1148 218.988 81.2879 213.985C84.5709 210.049 89.0113 206.854 92.7897 203.371C102.581 194.344 112.456 184.996 122.737 176.532C129.702 182.787 136.019 189.77 143.049 195.94C151.379 188.644 170.655 181.698 181.503 179.418C181.719 168.896 181.021 158.271 181.503 147.772ZM204.082 218.526C158.424 221.904 121.991 258.787 125.7 305.75C129.332 351.735 166.804 383.679 212.22 383.241C287.848 376.071 318.785 285.997 258.962 236.775C242.501 223.231 225.128 218.266 204.082 218.526Z"/><path fill="#2A7DB7" transform="scale(2 2)" d="M204.082 218.526C225.128 218.266 242.501 223.231 258.962 236.775C318.785 285.997 287.848 376.071 212.22 383.241C166.804 383.679 129.332 351.735 125.7 305.75C121.991 258.787 158.424 221.904 204.082 218.526ZM206.692 244.245C175.657 245.097 151.757 271.505 152.695 302.286C153.628 332.9 179.223 356.011 209.475 355.499C260.768 351.806 282.317 289.946 243.771 256.965C234.361 248.914 219.19 242.844 206.692 244.245Z"/></svg> 