<svg width="256" height="256" viewBox="0 0 256 256" fill="none" xmlns="http://www.w3.org/2000/svg">
<rect width="256" height="256" rx="52" fill="#62F67A"/>
<path fill-rule="evenodd" clip-rule="evenodd" d="M163.325 71.7827C163.325 78.8916 161.159 85.5025 157.441 91.0103H189.873C205.626 91.0103 218.397 103.585 218.397 119.096C218.397 132.304 209.137 143.383 196.661 146.381C194.485 146.904 192.212 147.181 189.873 147.181H181.975L232 204H156.803L128 171.162L99.1966 204H24L74.0253 147.181H66.1266C63.7878 147.181 61.5148 146.904 59.3395 146.381C46.8632 143.383 37.6034 132.304 37.6034 119.096C37.6034 103.585 50.3737 91.0103 66.1266 91.0103H98.5586C94.841 85.5025 92.6751 78.8916 92.6751 71.7827C92.6751 52.5727 108.491 37 128 37C147.509 37 163.325 52.5727 163.325 71.7827Z" fill="black"/>
<path fill-rule="evenodd" clip-rule="evenodd" d="M151.697 71.7827C151.697 79.7602 147.631 86.8027 141.428 91.0103C137.611 93.5994 132.985 95.1151 128 95.1151C123.015 95.1151 118.39 93.5994 114.573 91.0103C108.37 86.8027 104.304 79.7602 104.304 71.7827C104.304 58.8965 114.913 48.4502 128 48.4502C141.087 48.4502 151.697 58.8965 151.697 71.7827ZM156.504 135.731H189.874C199.204 135.731 206.768 128.283 206.768 119.096C206.768 109.908 199.204 102.461 189.874 102.461H66.1269C56.7964 102.461 49.2324 109.908 49.2324 119.096C49.2324 128.283 56.7964 135.731 66.1269 135.731H99.497L49.4716 192.55H93.8749L128 153.644L162.126 192.55H206.529L156.504 135.731Z" fill="white"/>
</svg>
